<mxfile host="app.diagrams.net" modified="2024-01-28T21:08:44.421Z" agent="Mozilla/5.0 (X11; Ubuntu; Linux x86_64; rv:109.0) Gecko/20100101 Firefox/119.0" etag="7nCkOYFCnWoUJV8p263N" version="23.0.2" type="github">
  <diagram name="Page-1" id="CCXDkMmYEeseRspRPApz">
    <mxGraphModel dx="1137" dy="663" grid="1" gridSize="10" guides="1" tooltips="1" connect="1" arrows="1" fold="1" page="1" pageScale="1" pageWidth="850" pageHeight="1100" math="0" shadow="0">
      <root>
        <mxCell id="0" />
        <mxCell id="1" parent="0" />
        <mxCell id="GH3iI-kV92OheZ8QKehh-1" value="/camera_controller" style="ellipse;whiteSpace=wrap;html=1;" vertex="1" parent="1">
          <mxGeometry x="20" y="290" width="120" height="80" as="geometry" />
        </mxCell>
        <mxCell id="GH3iI-kV92OheZ8QKehh-2" value="/gazebo" style="ellipse;whiteSpace=wrap;html=1;" vertex="1" parent="1">
          <mxGeometry x="940" y="60" width="120" height="80" as="geometry" />
        </mxCell>
        <mxCell id="GH3iI-kV92OheZ8QKehh-4" value="/scan" style="ellipse;whiteSpace=wrap;html=1;" vertex="1" parent="1">
          <mxGeometry x="630" y="530" width="120" height="80" as="geometry" />
        </mxCell>
        <mxCell id="GH3iI-kV92OheZ8QKehh-5" value="/robot_state_publisher" style="ellipse;whiteSpace=wrap;html=1;" vertex="1" parent="1">
          <mxGeometry x="935" y="530" width="130" height="80" as="geometry" />
        </mxCell>
        <mxCell id="GH3iI-kV92OheZ8QKehh-6" value="/differential_drive_conttroller" style="ellipse;whiteSpace=wrap;html=1;" vertex="1" parent="1">
          <mxGeometry x="215" y="60" width="210" height="70" as="geometry" />
        </mxCell>
        <mxCell id="GH3iI-kV92OheZ8QKehh-10" value="/joint_state_publisher" style="ellipse;whiteSpace=wrap;html=1;" vertex="1" parent="1">
          <mxGeometry x="260" y="530" width="120" height="80" as="geometry" />
        </mxCell>
        <mxCell id="GH3iI-kV92OheZ8QKehh-11" value="/static_transform_publisher_Ek2nKG7p8DpZAxqK" style="ellipse;whiteSpace=wrap;html=1;" vertex="1" parent="1">
          <mxGeometry x="1130" y="280" width="320" height="80" as="geometry" />
        </mxCell>
        <mxCell id="GH3iI-kV92OheZ8QKehh-12" value="/camera/camera_info" style="rounded=0;whiteSpace=wrap;html=1;" vertex="1" parent="1">
          <mxGeometry x="640" y="20" width="120" height="60" as="geometry" />
        </mxCell>
        <mxCell id="GH3iI-kV92OheZ8QKehh-13" value="/camera/depth/camera_info" style="rounded=0;whiteSpace=wrap;html=1;" vertex="1" parent="1">
          <mxGeometry x="620" y="90" width="160" height="60" as="geometry" />
        </mxCell>
        <mxCell id="GH3iI-kV92OheZ8QKehh-14" value="/camera/depth/image_raw" style="rounded=0;whiteSpace=wrap;html=1;" vertex="1" parent="1">
          <mxGeometry x="625" y="160" width="150" height="60" as="geometry" />
        </mxCell>
        <mxCell id="GH3iI-kV92OheZ8QKehh-15" value="/camera/image_raw" style="rounded=0;whiteSpace=wrap;html=1;" vertex="1" parent="1">
          <mxGeometry x="640" y="230" width="120" height="60" as="geometry" />
        </mxCell>
        <mxCell id="GH3iI-kV92OheZ8QKehh-16" value="/camera/points" style="rounded=0;whiteSpace=wrap;html=1;" vertex="1" parent="1">
          <mxGeometry x="640" y="300" width="120" height="60" as="geometry" />
        </mxCell>
        <mxCell id="GH3iI-kV92OheZ8QKehh-17" value="/clock" style="rounded=0;whiteSpace=wrap;html=1;" vertex="1" parent="1">
          <mxGeometry x="640" y="370" width="120" height="60" as="geometry" />
        </mxCell>
        <mxCell id="GH3iI-kV92OheZ8QKehh-18" value="/cmd_vel" style="rounded=0;whiteSpace=wrap;html=1;" vertex="1" parent="1">
          <mxGeometry x="640" y="440" width="120" height="60" as="geometry" />
        </mxCell>
        <mxCell id="GH3iI-kV92OheZ8QKehh-19" value="/joint_states" style="rounded=0;whiteSpace=wrap;html=1;" vertex="1" parent="1">
          <mxGeometry x="510" y="440" width="120" height="60" as="geometry" />
        </mxCell>
        <mxCell id="GH3iI-kV92OheZ8QKehh-20" value="/odom" style="rounded=0;whiteSpace=wrap;html=1;" vertex="1" parent="1">
          <mxGeometry x="510" y="370" width="120" height="60" as="geometry" />
        </mxCell>
        <mxCell id="GH3iI-kV92OheZ8QKehh-21" value="/parameter_events" style="rounded=0;whiteSpace=wrap;html=1;" vertex="1" parent="1">
          <mxGeometry x="510" y="300" width="120" height="60" as="geometry" />
        </mxCell>
        <mxCell id="GH3iI-kV92OheZ8QKehh-22" value="/performance_metrics" style="rounded=0;whiteSpace=wrap;html=1;" vertex="1" parent="1">
          <mxGeometry x="510" y="230" width="120" height="60" as="geometry" />
        </mxCell>
        <mxCell id="GH3iI-kV92OheZ8QKehh-23" value="/robot_description" style="rounded=0;whiteSpace=wrap;html=1;" vertex="1" parent="1">
          <mxGeometry x="500" y="160" width="120" height="60" as="geometry" />
        </mxCell>
        <mxCell id="GH3iI-kV92OheZ8QKehh-24" value="/rosout" style="rounded=0;whiteSpace=wrap;html=1;" vertex="1" parent="1">
          <mxGeometry x="490" y="90" width="120" height="60" as="geometry" />
        </mxCell>
        <mxCell id="GH3iI-kV92OheZ8QKehh-25" value="/scan" style="rounded=0;whiteSpace=wrap;html=1;" vertex="1" parent="1">
          <mxGeometry x="490" y="20" width="120" height="60" as="geometry" />
        </mxCell>
        <mxCell id="GH3iI-kV92OheZ8QKehh-26" value="/tf" style="rounded=0;whiteSpace=wrap;html=1;" vertex="1" parent="1">
          <mxGeometry x="380" y="440" width="120" height="60" as="geometry" />
        </mxCell>
        <mxCell id="GH3iI-kV92OheZ8QKehh-27" value="/tf_static" style="rounded=0;whiteSpace=wrap;html=1;" vertex="1" parent="1">
          <mxGeometry x="380" y="370" width="120" height="60" as="geometry" />
        </mxCell>
      </root>
    </mxGraphModel>
  </diagram>
</mxfile>
